Coordinates
nRows=230
nColumns=2
inDegrees=yes
endheader
time	ankle_angle_r	
6.71976	 18.600524	
6.75302	 18.613248	
6.78629	 18.613394	
6.81956	 18.607689	
6.85282	 18.605489	
6.88609	 18.611150	
6.91935	 18.624028	
6.95262	 18.632986	
6.98589	 18.632242	
7.01915	 18.628449	
7.05242	 18.619614	
7.08569	 18.599536	
7.11895	 18.578303	
7.15222	 18.571250	
7.18548	 18.581088	
7.21875	 18.597955	
7.25202	 18.608451	
7.28528	 18.608496	
7.31855	 18.606486	
7.35181	 18.613136	
7.38508	 18.628442	
7.41835	 18.637081	
7.45161	 18.627444	
7.48488	 18.612303	
7.51815	 18.613146	
7.55141	 18.631250	
7.58468	 18.647432	
7.61794	 18.644550	
7.65121	 18.629687	
7.68448	 18.629050	
7.71774	 18.650454	
7.75101	 18.672928	
7.78427	 18.681262	
7.81754	 18.680796	
7.85081	 18.679130	
7.88407	 18.673237	
7.91734	 18.657331	
7.9506	 18.639835	
7.98387	 18.637902	
8.01714	 18.654907	
8.0504	 18.678869	
8.08367	 18.696306	
8.11694	 18.700441	
8.1502	 18.695902	
8.18347	 18.695695	
8.21673	 18.705173	
8.25	 18.716933	
8.28327	 18.726228	
8.31653	 18.734560	
8.3498	 18.740889	
8.38306	 18.744457	
8.41633	 18.745275	
8.4496	 18.741158	
8.48286	 18.735876	
8.51613	 18.736250	
8.5494	 18.739277	
8.58266	 18.739576	
8.61593	 18.738226	
8.64919	 18.736625	
8.68246	 18.737345	
8.71573	 18.741979	
8.74899	 18.744545	
8.78226	 18.742591	
8.81552	 18.740780	
8.84879	 18.737744	
8.88206	 18.729168	
8.91532	 18.716442	
8.94859	 18.702176	
8.98185	 18.690514	
9.01512	 18.687570	
9.04839	 18.690194	
9.08165	 18.687037	
9.11492	 18.673638	
9.14819	 18.656224	
9.18145	 18.647660	
9.21472	 18.658424	
9.24798	 18.681817	
9.28125	 18.699227	
9.31452	 18.700090	
9.34778	 18.688071	
9.38105	 18.676951	
9.41431	 18.677642	
9.44758	 18.686200	
9.48085	 18.690499	
9.51411	 18.680619	
9.54738	 18.654341	
9.58065	 18.619619	
9.61391	 18.589063	
9.64718	 18.574526	
9.68044	 18.580259	
9.71371	 18.595404	
9.74698	 18.608019	
9.78024	 18.620962	
9.81351	 18.637798	
9.84677	 18.650683	
9.88004	 18.652755	
9.91331	 18.646156	
9.94657	 18.636203	
9.97984	 18.624769	
10.0131	 18.607532	
10.0464	 18.584911	
10.0796	 18.572088	
10.1129	 18.578214	
10.1462	 18.592230	
10.1794	 18.605468	
10.2127	 18.619768	
10.246	 18.631713	
10.2792	 18.633050	
10.3125	 18.620837	
10.3458	 18.599761	
10.379	 18.579445	
10.4123	 18.569345	
10.4456	 18.572018	
10.4788	 18.578817	
10.5121	 18.579575	
10.5454	 18.576582	
10.5786	 18.577550	
10.6119	 18.584092	
10.6452	 18.594852	
10.6784	 18.606803	
10.7117	 18.615381	
10.745	 18.618958	
10.7782	 18.616283	
10.8115	 18.605753	
10.8448	 18.595139	
10.878	 18.596158	
10.9113	 18.607283	
10.9446	 18.621389	
10.9778	 18.634912	
11.0111	 18.637698	
11.0444	 18.623286	
11.0776	 18.603451	
11.1109	 18.590129	
11.1442	 18.583825	
11.1774	 18.582547	
11.2107	 18.583750	
11.244	 18.587437	
11.2772	 18.595398	
11.3105	 18.601101	
11.3437	 18.598239	
11.377	 18.591105	
11.4103	 18.583974	
11.4435	 18.577815	
11.4768	 18.575703	
11.5101	 18.578342	
11.5433	 18.584406	
11.5766	 18.595486	
11.6099	 18.609001	
11.6431	 18.619388	
11.6764	 18.629806	
11.7097	 18.645075	
11.7429	 18.662914	
11.7762	 18.679578	
11.8095	 18.687626	
11.8427	 18.676675	
11.876	 18.649262	
11.9093	 18.621625	
11.9425	 18.605133	
11.9758	 18.599398	
12.0091	 18.602727	
12.0423	 18.612458	
12.0756	 18.616923	
12.1089	 18.609835	
12.1421	 18.602811	
12.1754	 18.605549	
12.2087	 18.615207	
12.2419	 18.629351	
12.2752	 18.644502	
12.3085	 18.652900	
12.3417	 18.653260	
12.375	 18.648816	
12.4083	 18.644021	
12.4415	 18.651191	
12.4748	 18.676199	
12.5081	 18.703884	
12.5413	 18.720666	
12.5746	 18.731634	
12.6079	 18.743209	
12.6411	 18.750282	
12.6744	 18.743208	
12.7077	 18.723019	
12.7409	 18.708226	
12.7742	 18.712362	
12.8075	 18.725668	
12.8407	 18.734555	
12.874	 18.737385	
12.9073	 18.737321	
12.9405	 18.737202	
12.9738	 18.735465	
13.0071	 18.727507	
13.0403	 18.717729	
13.0736	 18.716559	
13.1069	 18.725172	
13.1401	 18.736290	
13.1734	 18.743118	
13.2067	 18.743036	
13.2399	 18.740170	
13.2732	 18.740591	
13.3065	 18.743671	
13.3397	 18.744018	
13.373	 18.735740	
13.4062	 18.715250	
13.4395	 18.688995	
13.4728	 18.668741	
13.506	 18.658269	
13.5393	 18.657229	
13.5726	 18.664968	
13.6058	 18.671538	
13.6391	 18.664417	
13.6724	 18.646258	
13.7056	 18.631940	
13.7389	 18.631879	
13.7722	 18.640630	
13.8054	 18.642866	
13.8387	 18.632843	
13.872	 18.618729	
13.9052	 18.611070	
13.9385	 18.610627	
13.9718	 18.605300	
14.005	 18.590105	
14.0383	 18.582149	
14.0716	 18.598126	
14.1048	 18.630409	
14.1381	 18.659932	
14.1714	 18.676804	
14.2046	 18.679843	
14.2379	 18.670649	
14.2712	 18.648085	
14.3044	 18.607295	
14.3377	 18.551297	
